<?xml version="1.0" encoding="utf-8"?>
<!-- Generator: Adobe Illustrator 28.0.0, SVG Export Plug-In . SVG Version: 6.00 Build 0)  -->
<svg version="1.1" id="Layer_1" xmlns="http://www.w3.org/2000/svg" xmlns:xlink="http://www.w3.org/1999/xlink" x="0px" y="0px"
	 viewBox="0 0 1080 1080" style="enable-background:new 0 0 1080 1080;" xml:space="preserve">
<style type="text/css">
	.st0{fill:#FFFFFF;}
	.st1{fill:#070706;}
	.st2{fill:#FCFCFC;}
	.st3{opacity:0.9;fill:#FFFFFF;stroke:#000000;stroke-width:16;stroke-linecap:round;stroke-miterlimit:10;}
	.st4{fill:#F2A242;}
	.st5{fill:none;}
	.st6{font-family:'MLingWaiMedium-TC-B5pc-H';}
	.st7{font-size:242px;}
	.st8{letter-spacing:1;}
	.st9{letter-spacing:-5;}
</style>
<g>
	<circle class="st0" cx="346.7" cy="498.18" r="97.61"/>
	<circle class="st1" cx="346.7" cy="498.18" r="97.61"/>
	<circle class="st1" cx="736.26" cy="498.18" r="97.61"/>
	<circle class="st2" cx="346.7" cy="498.18" r="51.02"/>
	<circle class="st2" cx="736.26" cy="498.18" r="51.02"/>
	<line class="st3" x1="647.62" y1="130.96" x2="705.86" y2="426.66"/>
	<circle class="st0" cx="657.56" cy="190.5" r="41.69"/>
	<circle class="st1" cx="658.56" cy="189.57" r="24.93"/>
	<polygon class="st4" points="489.93,486.07 489.93,421.95 764.49,505.04 585.67,505.04 589.28,572.78 310.2,488.78 	"/>
	<rect x="97.65" y="601.79" class="st5" width="921.86" height="218.18"/>
	<text transform="matrix(1 0 0 1 189.6531 776.3238)"><tspan x="0" y="0" class="st6 st7 st8">SCO</tspan><tspan x="383.08" y="0" class="st6 st7 st9">OTS</tspan></text>
	<g>
		<g>
			<path class="st4" d="M287.54,829.8c0,10.43,1.78,19.54,10.23,19.54c8.35,0,9.43-7.91,9.7-9.53H315
				c-0.14,1.38-1.64,16.15-17.3,16.15c-15.69,0-17.87-14.37-17.87-27.62c0-16.85,5.77-27.49,18.28-27.49
				c14,0,17.31,11.53,17.31,24.83c0,1.01-0.04,2.8-0.14,4.11H287.54z M307.75,823.76c0-9.16-1.94-16.31-9.7-16.31
				c-9.73,0-10.22,12.66-10.36,16.31H307.75z"/>
			<path class="st4" d="M328.01,801.74c5.57,11.53,8.35,16.79,9.75,19.76h0.1c1.67-3.61,5.35-10.59,10.02-19.76h8.21l-14,25.42
				l14.13,27.83h-8.61c-5.2-11-8.52-17.46-10.01-20.74h-0.1c-1.36,2.83-5.29,10.79-10.19,20.74h-8.25l14.02-26.75l-13.61-26.49
				H328.01z"/>
			<path class="st4" d="M370.46,849.54v25.01h-7.68v-57.26c0-7.28,0-12.22-0.1-15.55h7.43c0.14,0.99,0.28,4.53,0.28,7.16
				c1.88-4.61,5.61-8.04,12.69-8.04c10.08,0,15.55,8.95,15.55,26.76c0,19.16-6.67,28.34-17.1,28.34
				C375.11,855.96,371.96,852.92,370.46,849.54z M390.77,827.98c0-13.39-3.1-20.31-10.07-20.31c-8.25,0-10.52,7.87-10.52,20.43
				c0,12.66,1.2,21.07,10.05,21.07C387.2,849.16,390.77,841.03,390.77,827.98z"/>
			<path class="st4" d="M409.5,854.98v-74.75h7.68v74.75H409.5z"/>
			<path class="st4" d="M464.73,827.74c0,18.73-6.3,28.23-18.32,28.23c-12.32,0-18.31-9.15-18.31-28.05
				c0-18.47,7.21-27.05,18.64-27.05C458.37,800.86,464.73,809.88,464.73,827.74z M435.94,827.95c0,14.48,3.61,21.36,10.54,21.36
				c6.92,0,10.39-6.97,10.39-21.42c0-13.62-3.38-20.33-10.43-20.33C439.73,807.56,435.94,813.53,435.94,827.95z"/>
			<path class="st4" d="M475.54,819.88c0-8.49,0-14.32-0.1-18.14h7.39c0.1,1.38,0.25,3.86,0.25,9.5c2.27-6.43,7.4-10.24,14.08-10.31
				v8.48c-9.16,0.29-13.93,6.05-13.93,15.83v29.74h-7.68V819.88z"/>
			<path class="st4" d="M510.46,829.8c0,10.43,1.78,19.54,10.23,19.54c8.35,0,9.43-7.91,9.7-9.53h7.53
				c-0.14,1.38-1.64,16.15-17.3,16.15c-15.69,0-17.87-14.37-17.87-27.62c0-16.85,5.77-27.49,18.28-27.49
				c14,0,17.31,11.53,17.31,24.83c0,1.01-0.04,2.8-0.14,4.11H510.46z M530.66,823.76c0-9.16-1.94-16.31-9.7-16.31
				c-9.73,0-10.22,12.66-10.36,16.31H530.66z"/>
			<path d="M563.24,801.74h7.51v-14.19h7.61v14.19h9.28v6.59h-9.28v34.93c0,3.66,0.8,5.95,4.82,5.95c1.26,0,2.77-0.07,3.75-0.28
				v5.91c-1.8,0.71-4.49,0.88-6.29,0.88c-6.26,0-9.9-2.55-9.9-10.93v-36.46h-7.51V801.74z"/>
			<path d="M603.58,780.23v28c1.86-4.34,6-7.41,12.75-7.41c7.82,0,13.41,4.87,13.41,16.3v37.86h-7.75V818.7
				c0-6.53-1.89-11.04-8.42-11.04c-7.31,0-9.99,6.02-9.99,15.31v32h-7.75v-74.75H603.58z"/>
			<path d="M648.21,829.8c0,10.43,1.78,19.54,10.23,19.54c8.35,0,9.43-7.91,9.7-9.53h7.53c-0.14,1.38-1.64,16.15-17.3,16.15
				c-15.69,0-17.87-14.37-17.87-27.62c0-16.85,5.77-27.49,18.28-27.49c14,0,17.31,11.53,17.31,24.83c0,1.01-0.04,2.8-0.14,4.11
				H648.21z M668.42,823.76c0-9.16-1.94-16.31-9.7-16.31c-9.73,0-10.22,12.66-10.36,16.31H668.42z"/>
			<path d="M739.57,838.73c-0.21,2.83-1.36,17.2-16.92,17.2c-13.92,0-17.67-12.29-17.67-27.75c0-14.96,4.86-27.35,18.37-27.35
				c15.46,0,16.19,14.29,16.22,16.8h-7.85c-0.11-2.17-0.82-10.18-8.41-10.18c-7.68,0-10.48,8.38-10.48,20.7
				c0,13.24,2.89,21.16,10.1,21.16c7.7,0,8.62-7.76,9.01-10.58H739.57z"/>
			<path d="M749.48,801.74h7.68v53.24h-7.68V801.74z M749.52,780.23h7.68v11.01h-7.68V780.23z"/>
			<path d="M764.1,801.74h7.51v-14.19h7.61v14.19h9.28v6.59h-9.28v34.93c0,3.66,0.8,5.95,4.82,5.95c1.26,0,2.77-0.07,3.75-0.28v5.91
				c-1.8,0.71-4.49,0.88-6.28,0.88c-6.26,0-9.9-2.55-9.9-10.93v-36.46h-7.51V801.74z"/>
			<path d="M799.71,801.74c5.74,22.28,10.16,38.23,10.86,43.93h0.11c1.06-6.12,5.84-24.36,10.9-43.93h7.95l-15.58,55.93
				c-4.32,15.59-8.45,17.68-16.01,17.68c-1.13,0-2.76-0.1-3.79-0.35v-6.83c0.73,0.17,2.32,0.28,3.51,0.28
				c5.57,0,7.11-3.8,9.25-12.36l-15.6-54.35H799.71z"/>
		</g>
	</g>
</g>
</svg>
